<?xml version="1.0" standalone="no"?>
<!DOCTYPE svg PUBLIC "-//W3C//DTD SVG 20010904//EN"
 "http://www.w3.org/TR/2001/REC-SVG-20010904/DTD/svg10.dtd">
<svg version="1.0" xmlns="http://www.w3.org/2000/svg"
 width="3024.000000pt" height="4032.000000pt" viewBox="0 0 3024.000000 4032.000000"
 preserveAspectRatio="xMidYMid meet">

<g transform="translate(0.000000,4032.000000) scale(0.100000,-0.100000)"
fill="#000000" stroke="none">
<path d="M25388 40313 c6 -2 18 -2 25 0 6 3 1 5 -13 5 -14 0 -19 -2 -12 -5z"/>
<path d="M25576 40310 c38 -8 140 -12 584 -25 102 -3 233 -10 292 -16 59 -6
160 -12 225 -15 346 -12 576 -22 628 -28 66 -7 403 -28 505 -31 162 -5 460
-21 565 -30 50 -5 241 -15 355 -20 47 -2 112 -6 145 -9 230 -23 277 -26 650
-41 268 -10 390 -17 538 -31 86 -8 162 -14 167 -14 6 0 10 53 10 135 l0 135
-2352 -1 c-1294 -1 -2335 -5 -2312 -9z"/>
<path d="M14617 36773 c-1 -1 -88 -4 -192 -7 -304 -10 -451 -21 -492 -37 -13
-5 -82 -11 -154 -14 -71 -2 -138 -9 -149 -15 -10 -5 -30 -10 -44 -10 -14 0
-28 -5 -31 -11 -4 -6 -19 -7 -35 -4 -18 4 -40 0 -59 -9 -16 -9 -52 -16 -80
-16 -27 0 -52 -4 -56 -10 -3 -5 -18 -9 -33 -8 -45 1 -332 -63 -332 -74 0 -5
-14 -8 -32 -8 -17 0 -45 -4 -62 -9 -17 -5 -53 -16 -81 -24 -27 -9 -69 -18 -93
-21 -24 -4 -51 -10 -60 -15 -47 -25 -93 -41 -119 -41 -15 0 -37 -7 -47 -15
-11 -8 -30 -15 -42 -15 -13 0 -26 -5 -29 -11 -4 -6 -13 -8 -20 -5 -8 3 -19 -2
-26 -10 -6 -8 -20 -12 -30 -9 -9 3 -20 1 -23 -4 -4 -5 -37 -19 -74 -32 -37
-12 -74 -27 -82 -34 -8 -7 -36 -16 -61 -19 -27 -4 -54 -15 -64 -26 -10 -11
-29 -20 -42 -20 -13 0 -32 -4 -43 -10 -11 -5 -29 -14 -40 -20 -11 -5 -26 -10
-34 -10 -8 0 -21 -6 -28 -14 -17 -16 -138 -76 -155 -76 -10 0 -72 -26 -170
-73 -13 -6 -23 -16 -23 -24 0 -7 -9 -13 -20 -13 -11 0 -20 -4 -20 -10 0 -5
-13 -10 -29 -10 -19 0 -35 -8 -45 -21 -9 -14 -21 -19 -31 -15 -9 3 -18 0 -21
-9 -4 -8 -16 -15 -28 -15 -11 0 -33 -10 -48 -23 -14 -12 -36 -30 -47 -39 -12
-10 -31 -18 -44 -18 -13 0 -34 -13 -49 -30 -16 -18 -36 -30 -51 -30 -13 0 -37
-11 -53 -25 -16 -14 -33 -25 -39 -26 -5 0 -37 -20 -70 -45 -33 -24 -75 -50
-92 -58 -22 -10 -33 -22 -33 -35 0 -13 -7 -21 -17 -22 -10 -1 -22 -2 -28 -3
-14 -2 -181 -115 -196 -132 -6 -8 -17 -14 -24 -14 -17 0 -105 -79 -105 -95 0
-16 -54 -57 -100 -75 -36 -14 -60 -33 -60 -46 0 -10 -33 -33 -49 -34 -7 0 -22
-11 -33 -25 -11 -14 -26 -25 -33 -25 -8 0 -24 -15 -36 -32 -32 -46 -51 -59
-66 -46 -12 10 -17 4 -14 -14 0 -5 -2 -7 -7 -6 -6 2 -77 -62 -186 -167 -11
-12 -34 -37 -49 -57 -16 -20 -34 -35 -41 -32 -14 5 -58 -47 -78 -93 -17 -39
-38 -63 -57 -63 -25 -1 -68 -44 -75 -77 -8 -33 -26 -60 -70 -104 -24 -24 -32
-27 -44 -16 -12 9 -16 9 -19 0 -3 -7 -11 -13 -19 -13 -8 0 -14 -9 -14 -20 0
-11 5 -20 10 -20 6 0 2 -10 -10 -22 -11 -12 -20 -25 -20 -30 0 -4 -7 -8 -15
-8 -8 0 -16 -4 -16 -10 -5 -40 -18 -52 -45 -46 -19 5 -24 2 -24 -13 0 -23 -16
-36 -45 -36 -15 0 -20 -7 -21 -30 -3 -66 -4 -76 -12 -71 -8 5 -49 -22 -44 -29
8 -16 -2 -25 -33 -31 -21 -4 -45 -18 -60 -36 -21 -25 -23 -32 -12 -49 8 -14 9
-22 1 -27 -6 -4 -16 -16 -22 -27 -6 -11 -12 -14 -12 -7 0 13 -43 -28 -69 -66
-8 -11 -20 -18 -28 -15 -8 3 -20 -3 -28 -13 -17 -22 -20 -64 -5 -64 16 0 12
-18 -9 -39 -10 -10 -22 -28 -26 -40 -4 -13 -18 -23 -41 -27 -19 -3 -34 -12
-34 -19 0 -7 -6 -15 -13 -18 -8 -3 -24 -22 -36 -42 -21 -36 -21 -36 -1 -30 25
8 25 0 1 -27 -12 -12 -26 -18 -36 -14 -9 3 -13 2 -10 -4 3 -6 -1 -10 -9 -10
-24 0 -37 -35 -30 -79 6 -40 -1 -48 -54 -55 -19 -3 -27 -22 -14 -30 10 -6 4
-54 -8 -61 -4 -3 -13 2 -20 11 -11 13 -15 10 -26 -23 -8 -21 -14 -53 -14 -72
0 -30 -2 -33 -25 -28 -31 5 -45 -16 -38 -55 3 -15 2 -36 -2 -45 -6 -17 -7 -17
-21 1 -17 24 -27 15 -26 -24 0 -16 -3 -30 -7 -30 -5 0 -16 -27 -25 -60 -12
-42 -22 -60 -33 -60 -9 0 -14 -3 -10 -6 8 -9 -18 -34 -36 -34 -23 0 -40 -27
-35 -55 3 -14 1 -25 -3 -25 -5 0 -9 -20 -9 -45 0 -27 -9 -63 -21 -88 -27 -53
-26 -52 -44 -37 -22 18 -30 5 -28 -46 1 -40 -1 -44 -22 -44 -21 0 -22 -4 -20
-45 2 -25 -1 -45 -6 -45 -5 0 -9 -9 -9 -20 0 -17 -5 -19 -24 -14 -22 5 -25 2
-32 -30 -3 -20 -4 -45 -1 -56 4 -15 0 -20 -15 -20 -17 0 -19 -6 -18 -47 2 -66
2 -67 -15 -53 -25 21 -42 -3 -25 -35 10 -19 11 -30 2 -50 -7 -14 -12 -35 -12
-46 0 -19 -1 -19 -17 -3 -16 15 -18 15 -39 -12 -13 -15 -21 -31 -18 -36 3 -4
0 -8 -6 -8 -6 0 -8 -4 -5 -10 3 -5 11 -10 16 -10 6 0 7 5 4 10 -3 6 -2 10 4
10 5 0 12 -9 16 -19 7 -22 -29 -66 -45 -56 -5 3 -12 -11 -16 -32 -4 -21 -13
-50 -20 -65 -9 -17 -13 -46 -9 -76 4 -44 2 -49 -24 -65 -32 -19 -64 -98 -43
-105 10 -3 10 -7 1 -18 -9 -11 -15 -11 -25 -3 -13 11 -15 8 -29 -63 -2 -10 1
-18 6 -18 6 0 6 -8 -1 -19 -7 -14 -7 -20 2 -23 9 -3 9 -11 0 -34 -6 -16 -13
-51 -16 -79 -2 -27 -5 -51 -5 -52 -1 -2 -7 -3 -15 -3 -8 0 -18 10 -22 23 -7
19 -9 17 -16 -18 -6 -26 -5 -41 2 -43 16 -6 12 -42 -5 -42 -19 0 -19 -24 0
-44 16 -15 11 -41 -12 -64 -7 -7 -13 -30 -13 -50 -1 -35 -2 -36 -15 -18 -13
17 -15 18 -15 3 0 -9 -5 -17 -12 -17 -6 0 -1 -8 10 -19 29 -25 29 -61 1 -61
-19 0 -21 -4 -16 -36 9 -53 -2 -94 -24 -94 -10 0 -20 -4 -23 -8 -5 -9 8 -34
18 -33 3 1 6 -1 6 -4 0 -51 1 -50 -12 -32 -12 16 -14 16 -26 -4 -11 -18 -11
-21 5 -25 19 -5 29 -46 16 -67 -3 -6 -5 -37 -4 -70 2 -40 -1 -57 -8 -52 -6 3
-11 1 -11 -4 0 -6 -4 -11 -10 -11 -5 0 -10 7 -10 15 0 8 -4 15 -9 15 -15 0
-10 -103 6 -129 10 -16 12 -26 5 -33 -6 -6 -8 -17 -5 -24 3 -8 0 -20 -6 -28
-6 -7 -7 -17 -3 -21 4 -5 1 -5 -5 -1 -7 4 -13 14 -13 22 0 8 -5 14 -11 14 -8
0 -10 -15 -7 -45 4 -28 1 -46 -6 -49 -7 -3 -6 -5 2 -5 7 -1 10 -6 6 -13 -4 -7
-3 -8 4 -4 7 4 12 14 12 22 0 14 12 19 22 8 4 -3 0 -21 -8 -40 -8 -18 -13 -37
-12 -41 5 -26 -17 -86 -33 -90 -22 -6 -24 -14 -7 -31 8 -8 8 -15 -2 -27 -9
-11 -10 -19 -3 -23 13 -9 25 -72 14 -72 -5 0 -11 5 -13 12 -2 6 -10 8 -17 4
-7 -5 -9 -15 -5 -25 4 -9 8 -38 9 -66 2 -27 5 -59 8 -70 2 -11 -1 -27 -8 -35
-7 -8 -16 -29 -20 -47 -6 -29 -4 -33 19 -39 33 -8 33 -34 1 -62 -14 -12 -25
-25 -24 -29 1 -16 18 -47 18 -35 1 17 21 15 21 -2 0 -7 -10 -20 -22 -28 -20
-13 -22 -24 -23 -104 -1 -49 0 -81 3 -71 7 33 20 17 24 -30 3 -31 0 -54 -9
-64 -9 -11 -10 -18 -2 -26 8 -8 8 -13 0 -17 -6 -4 -11 -16 -11 -27 0 -10 -5
-19 -12 -19 -21 0 1 -13 24 -14 18 -1 24 -8 26 -30 2 -18 0 -26 -7 -21 -6 3
-11 13 -11 22 0 13 -2 14 -17 2 -11 -10 -14 -10 -9 -1 4 6 2 12 -3 12 -14 0
-14 -17 0 -26 7 -4 9 -22 6 -45 -3 -22 -1 -42 5 -45 17 -10 26 -48 14 -56 -8
-6 -7 -10 2 -16 9 -6 11 -18 6 -35 -4 -18 -2 -27 6 -27 9 0 10 -31 6 -122 -3
-68 -8 -140 -12 -160 -6 -38 2 -48 22 -28 7 7 10 4 10 -12 -1 -13 -7 -27 -14
-31 -9 -6 -9 -13 -2 -27 5 -10 10 -33 10 -50 0 -17 7 -38 15 -46 8 -9 15 -30
15 -47 l-1 -32 -17 28 c-17 27 -32 35 -32 17 0 -5 5 -10 11 -10 8 0 10 -17 7
-51 -5 -44 -2 -55 19 -77 13 -14 21 -31 19 -39 -3 -7 1 -16 8 -20 8 -5 15 -15
17 -23 4 -19 -10 -60 -20 -60 -3 0 -7 -9 -7 -20 0 -11 6 -20 13 -20 7 0 13
-11 13 -25 0 -23 -2 -25 -22 -15 -21 10 -21 9 2 -11 14 -12 23 -27 22 -33 -9
-27 -2 -110 9 -116 6 -4 8 -13 5 -19 -4 -6 -4 -16 0 -22 4 -8 9 -7 15 2 15 24
26 -30 18 -85 -7 -43 -6 -53 11 -71 24 -25 26 -45 5 -45 -8 0 -15 -4 -15 -10
0 -5 11 -10 25 -10 22 0 25 -4 25 -35 0 -19 -4 -35 -10 -35 -5 0 -10 -11 -10
-25 0 -14 5 -26 10 -26 6 -1 15 -2 21 -3 14 -1 28 -36 21 -54 -2 -7 0 -18 6
-25 6 -7 10 -26 10 -43 -1 -17 2 -36 6 -43 4 -6 3 -11 -2 -11 -19 0 -7 -29 16
-40 14 -6 22 -13 19 -17 -4 -3 -13 0 -21 6 -12 10 -13 9 -9 -9 3 -11 8 -18 11
-15 8 7 42 -26 42 -40 0 -7 -7 -16 -16 -19 -16 -6 -16 -8 0 -24 9 -10 16 -24
16 -30 0 -7 5 -12 10 -12 6 0 10 -16 10 -36 0 -21 -4 -33 -10 -29 -15 10 -12
-28 6 -65 12 -23 19 -28 25 -19 5 9 11 6 20 -14 15 -33 6 -45 -18 -26 -12 9
-11 5 3 -11 15 -17 21 -36 19 -58 -2 -21 3 -35 13 -41 9 -5 17 -18 18 -28 0
-10 1 -30 2 -45 1 -17 8 -28 17 -28 9 0 12 6 8 18 -3 9 -3 14 1 11 4 -4 8 -16
11 -28 2 -11 7 -26 10 -31 3 -6 -1 -10 -10 -10 -13 0 -15 -5 -10 -17 4 -10 10
-30 13 -45 2 -16 8 -28 12 -28 5 0 6 10 3 23 -5 18 -3 20 8 9 8 -7 14 -32 14
-55 0 -34 3 -41 17 -39 22 3 40 -29 27 -49 -5 -7 -9 -23 -9 -33 0 -20 0 -20
14 0 25 33 40 5 28 -50 -5 -26 -6 -46 -1 -46 5 0 9 -5 9 -11 0 -6 12 -20 26
-31 14 -11 23 -26 20 -34 -7 -17 13 -76 24 -69 4 3 6 -4 3 -15 -3 -12 8 -43
31 -81 20 -33 34 -64 31 -69 -5 -8 24 -80 36 -90 3 -3 9 -22 13 -42 4 -22 15
-42 26 -48 11 -6 20 -20 20 -30 0 -11 7 -20 16 -20 9 0 12 5 8 13 -5 8 -2 8 9
-2 9 -7 17 -17 17 -22 0 -4 11 -20 25 -35 31 -33 33 -58 5 -51 -29 8 -31 -5
-3 -33 13 -14 23 -20 22 -15 -3 22 2 27 16 15 20 -16 19 -28 -2 -33 -16 -3
-16 -5 2 -12 31 -14 52 -38 37 -43 -19 -6 -14 -57 7 -76 10 -9 21 -30 25 -47
3 -16 10 -29 15 -29 6 0 7 7 4 17 -4 11 -3 14 5 9 7 -4 12 -15 12 -24 0 -21
34 -52 56 -52 8 0 13 -4 10 -9 -3 -5 1 -12 9 -15 12 -4 13 -11 7 -23 -10 -19
0 -57 17 -68 6 -3 11 -14 11 -24 0 -10 15 -34 34 -53 20 -20 31 -39 26 -44 -5
-5 -2 -20 5 -34 l14 -25 1 28 c0 17 5 27 15 27 18 0 19 -14 4 -43 -9 -16 -9
-22 0 -25 6 -2 11 -8 11 -13 0 -14 33 -49 47 -49 7 0 13 -4 13 -10 0 -5 7 -10
15 -10 8 0 15 -9 15 -20 0 -11 7 -20 15 -20 8 0 15 -7 15 -15 0 -13 -4 -14
-21 -5 -28 15 -37 5 -10 -12 12 -7 21 -18 21 -25 0 -7 4 -13 8 -13 5 0 18 -9
31 -21 19 -17 20 -23 9 -37 -11 -13 -11 -15 4 -10 11 5 18 0 22 -18 4 -13 10
-24 15 -24 18 0 96 -81 86 -88 -7 -5 -7 -17 0 -38 8 -26 15 -31 37 -28 19 2
27 -3 31 -17 4 -16 2 -17 -14 -8 -15 8 -19 6 -19 -6 0 -10 5 -13 12 -9 6 4 8
3 4 -4 -7 -11 34 -62 50 -62 5 0 24 -22 43 -49 18 -28 40 -52 48 -55 8 -3 11
-1 8 4 -3 6 1 7 9 4 9 -3 16 -10 16 -15 0 -5 8 -9 17 -9 13 0 14 -3 5 -12 -19
-19 -14 -37 13 -50 14 -6 29 -25 36 -47 13 -38 64 -99 75 -88 4 3 -7 18 -24
32 -17 14 -30 34 -29 45 1 22 17 28 17 6 0 -8 16 -26 34 -41 19 -15 36 -37 38
-49 2 -13 12 -22 26 -24 12 -2 22 -9 22 -15 0 -7 9 -18 20 -25 23 -14 26 -32
6 -32 -7 0 -16 9 -19 20 -6 25 -27 26 -27 2 0 -18 47 -48 57 -38 7 7 59 -56
67 -81 4 -13 15 -23 24 -23 13 0 14 -2 4 -9 -10 -6 -1 -18 32 -46 25 -20 44
-43 43 -49 -1 -6 8 -10 22 -8 19 2 21 0 12 -12 -9 -10 -8 -16 3 -25 10 -8 16
-9 21 -1 3 5 14 10 23 9 11 0 12 -3 5 -6 -17 -6 -16 -28 1 -42 10 -8 16 -9 21
-1 7 12 16 13 34 1 9 -6 10 -14 3 -27 -17 -32 3 -56 41 -50 18 3 26 3 20 0
-28 -13 1 -54 42 -60 6 0 16 -2 23 -2 6 -1 12 -6 12 -12 0 -5 -7 -7 -16 -3
-14 5 -13 3 2 -15 10 -12 24 -22 30 -22 7 0 15 -11 18 -25 8 -32 24 -32 28 -1
3 23 5 23 23 10 17 -13 18 -16 5 -25 -11 -8 -12 -12 -3 -15 7 -3 9 -12 6 -21
-5 -13 -1 -15 21 -11 29 6 46 -13 46 -51 0 -12 5 -21 10 -21 6 0 21 -9 33 -20
14 -14 31 -19 49 -16 15 2 32 -2 38 -9 6 -7 24 -15 40 -19 28 -5 44 -36 20
-36 -5 0 -10 -9 -10 -20 0 -11 6 -20 14 -20 8 0 18 -9 21 -20 3 -11 15 -20 25
-20 10 0 22 -5 25 -10 3 -6 17 -7 31 -4 17 5 24 2 24 -9 0 -11 -7 -14 -22 -10
-19 5 -21 3 -10 -8 7 -8 18 -14 25 -14 17 0 71 -46 80 -68 3 -9 13 -17 21 -17
7 0 16 -7 20 -15 3 -8 18 -21 33 -27 15 -7 41 -23 57 -35 17 -14 36 -21 46
-18 15 5 17 2 13 -15 -4 -15 -1 -20 16 -20 11 0 21 -6 21 -14 0 -7 8 -16 18
-20 9 -3 23 -9 30 -12 6 -3 12 -1 12 5 0 6 -7 11 -15 11 -8 0 -15 4 -15 9 0
12 30 36 31 25 1 -5 2 -13 4 -19 1 -5 3 -27 3 -48 1 -23 6 -36 12 -32 6 4 8
11 4 16 -15 26 67 -30 86 -58 17 -25 30 -33 52 -33 29 0 44 -9 76 -42 18 -19
52 -24 52 -8 0 6 5 10 11 10 6 0 8 -7 5 -17 -8 -20 30 -63 56 -63 10 0 18 -7
18 -15 0 -8 9 -15 20 -15 11 0 23 -7 26 -15 4 -8 12 -15 20 -15 8 0 14 -4 14
-10 0 -5 13 -10 29 -10 17 0 35 -8 43 -18 32 -44 98 -69 98 -37 0 27 18 16 25
-15 4 -16 13 -30 21 -30 8 0 14 -7 14 -15 0 -12 8 -14 40 -9 27 4 40 3 40 -5
0 -6 -6 -11 -12 -11 -7 0 -5 -5 5 -11 9 -6 26 -8 35 -4 13 4 23 -3 32 -22 8
-16 15 -29 16 -31 1 -2 11 2 22 9 17 10 23 10 36 0 9 -8 16 -20 16 -27 0 -8 7
-14 15 -14 8 0 15 5 15 10 0 6 -7 13 -15 16 -25 10 -18 32 9 27 16 -3 23 -10
19 -19 -3 -8 0 -14 6 -14 6 0 11 -9 11 -19 0 -11 9 -23 20 -26 11 -3 25 -16
31 -27 8 -16 17 -19 40 -14 22 4 29 2 29 -9 0 -14 32 -20 88 -18 8 1 10 -6 7
-18 -5 -14 -1 -19 10 -19 12 0 16 6 12 20 -4 15 0 20 15 20 10 0 17 -4 14 -9
-3 -5 5 -16 19 -25 30 -20 35 -20 35 -1 0 8 4 15 10 15 12 0 29 -32 24 -45 -5
-12 47 -45 70 -45 9 0 16 -4 16 -10 0 -5 12 -10 26 -10 14 0 33 -9 42 -20 27
-31 73 -51 89 -38 10 8 17 6 27 -8 20 -26 32 -10 17 22 -9 20 -9 25 1 22 7 -3
19 -23 27 -45 12 -34 18 -40 43 -40 17 0 33 -6 38 -13 4 -7 15 -10 23 -7 8 3
23 0 33 -8 15 -11 20 -11 29 1 5 7 23 14 40 16 23 2 32 -2 43 -24 7 -16 20
-28 29 -28 9 0 13 -6 10 -14 -5 -11 4 -14 38 -11 36 2 50 -2 71 -22 20 -19 29
-22 35 -12 4 7 6 16 4 19 -2 3 6 7 18 8 15 1 27 -8 38 -26 16 -28 85 -57 112
-46 8 3 18 1 22 -5 9 -16 25 -13 25 3 0 8 5 18 11 22 9 5 10 -1 5 -20 -3 -14
-2 -26 3 -26 5 0 17 -3 26 -7 14 -5 16 -2 10 18 -8 24 -8 24 14 5 11 -11 21
-25 21 -33 0 -7 5 -13 11 -13 7 0 9 10 6 25 -6 33 15 28 23 -6 5 -20 14 -25
55 -31 28 -4 56 -6 63 -3 6 2 12 0 12 -5 0 -6 7 -10 15 -10 8 0 15 9 15 19 0
11 5 23 12 27 8 5 9 0 5 -15 -4 -17 0 -24 19 -31 13 -5 24 -14 24 -20 0 -14
37 -13 46 2 5 8 10 7 18 -4 8 -11 28 -16 63 -15 29 0 59 -6 68 -13 21 -17 29
-7 16 19 -6 11 -7 22 -3 25 12 7 52 -5 52 -16 0 -5 -4 -6 -10 -3 -5 3 -10 -1
-10 -11 0 -11 6 -15 20 -11 13 3 21 -1 25 -14 4 -10 13 -19 21 -19 16 0 19 16
4 25 -15 9 -12 25 5 25 8 0 15 -7 15 -15 0 -9 6 -12 17 -8 13 5 15 2 11 -14
-4 -16 0 -23 15 -27 12 -3 24 0 28 6 4 6 11 8 17 4 6 -3 13 0 16 6 5 10 7 10
12 1 3 -7 15 -13 25 -13 13 0 18 4 13 12 -5 7 -3 8 5 4 7 -5 10 -14 7 -22 -3
-8 -1 -14 5 -14 5 0 14 10 19 23 9 22 9 22 9 1 1 -24 22 -37 46 -28 18 7 19
16 3 32 -6 6 -8 15 -4 19 4 4 12 -1 18 -11 6 -10 18 -26 28 -36 10 -10 15 -21
12 -25 -4 -3 1 -3 10 0 9 4 18 15 21 26 3 10 13 19 22 19 12 0 15 -5 10 -21
-6 -19 -4 -21 19 -17 14 3 26 2 26 -1 0 -4 27 -8 60 -9 56 -2 60 -1 60 19 0
12 3 19 7 16 3 -4 12 -2 20 4 10 9 13 8 13 -4 0 -9 -4 -19 -10 -22 -16 -10
-12 -28 5 -21 8 3 19 -2 24 -11 8 -14 12 -15 25 -4 11 10 20 10 29 3 8 -7 18
-7 27 -2 8 5 18 6 24 3 5 -3 6 -1 3 5 -11 16 3 42 22 41 10 0 11 -2 4 -6 -20
-8 -15 -29 10 -46 16 -11 28 -12 41 -5 11 6 22 6 31 -2 8 -6 19 -9 25 -5 20
12 110 11 110 -1 0 -16 113 -11 118 5 3 8 8 7 16 -5 16 -22 39 -9 31 17 -4 10
-2 19 4 19 6 0 13 -11 17 -24 5 -22 10 -24 62 -22 31 0 67 -3 79 -7 19 -7 22
-5 16 9 -5 13 -2 15 15 9 30 -9 72 -9 100 -1 13 5 22 3 22 -3 0 -6 5 -11 11
-11 5 0 8 4 4 9 -3 6 6 6 25 1 17 -5 42 -6 58 -2 15 3 53 5 85 4 33 -1 57 2
57 8 0 14 27 12 33 -2 3 -10 9 -9 22 4 13 12 24 14 42 7 18 -7 30 -5 46 6 l22
15 -22 6 c-28 8 -30 24 -4 24 14 0 21 -9 26 -31 6 -28 8 -29 24 -15 19 17 41
21 41 8 0 -14 34 -10 52 5 11 10 18 11 23 4 11 -19 25 -12 25 12 l1 22 18 -22
c24 -28 41 -29 75 -2 24 19 31 20 77 10 49 -11 54 -10 86 15 26 20 37 23 48
14 9 -8 15 -8 20 0 4 6 15 8 26 5 21 -7 25 5 9 21 -8 8 -2 11 19 12 28 1 29
-1 20 -25 -12 -32 -4 -41 18 -20 13 11 23 13 35 6 26 -15 45 -1 43 31 -1 20 3
30 12 30 10 0 12 -6 8 -19 -7 -22 16 -29 73 -22 23 2 32 8 32 22 0 10 5 19 11
19 6 0 9 -7 6 -15 -11 -27 13 -26 38 2 23 26 26 27 38 11 12 -16 15 -15 40 8
26 24 27 24 27 4 0 -11 5 -20 10 -20 6 0 10 7 10 15 0 18 26 20 36 3 5 -8 10
-7 18 3 6 8 31 15 56 16 25 2 50 9 55 16 6 7 17 11 26 9 9 -1 21 4 28 12 9 11
19 12 36 6 15 -6 29 -4 43 6 11 8 27 11 36 8 10 -4 16 -1 16 8 0 9 12 15 33
16 60 3 117 27 117 49 0 7 5 13 10 13 7 0 7 -6 0 -19 -14 -26 -13 -38 2 -23 7
7 20 12 30 12 10 0 18 7 18 15 0 8 7 15 15 15 8 0 15 7 15 16 0 11 5 14 16 10
9 -3 18 -6 20 -6 10 0 3 -19 -8 -23 -7 -2 -2 -2 12 0 14 3 29 11 33 19 5 8 13
11 19 8 6 -4 14 0 19 7 7 12 9 12 9 0 0 -10 4 -11 13 -3 6 6 27 12 46 14 34 3
58 28 27 28 -9 0 -16 7 -16 15 0 22 28 18 35 -5 6 -20 35 -28 35 -10 0 6 9 10
20 10 11 0 20 5 20 10 0 6 5 10 11 10 6 0 9 -7 5 -15 -3 -8 -1 -15 4 -15 6 0
10 6 10 14 0 7 8 20 17 27 14 11 15 11 9 1 -6 -10 -3 -13 10 -10 11 2 18 11
16 20 -2 13 5 16 35 15 31 -2 37 1 35 16 -2 9 2 17 8 17 6 0 15 11 20 25 5 14
14 25 20 25 16 0 12 -28 -6 -38 -19 -10 -11 -32 11 -32 8 0 21 10 29 21 9 14
21 19 31 15 25 -9 62 21 69 59 4 18 13 36 21 39 18 7 19 2 3 -24 -7 -10 -10
-21 -8 -24 11 -11 72 11 115 42 39 27 45 35 35 47 -16 20 -3 19 17 -1 14 -14
14 -16 -3 -29 -12 -9 -14 -14 -6 -15 8 0 27 14 44 31 42 41 75 53 94 34 13
-13 21 -10 67 22 74 51 87 64 85 82 -2 10 6 17 20 19 21 3 22 2 10 -17 -17
-28 -1 -40 18 -13 17 25 62 53 48 30 -9 -14 12 -1 53 35 12 11 30 17 41 15 11
-3 30 7 52 28 35 35 50 42 50 24 0 -5 4 -10 9 -10 5 0 12 22 16 49 4 30 13 52
22 55 12 5 14 1 8 -21 -11 -44 -11 -45 2 -50 7 -3 18 7 24 21 7 14 15 23 20
20 4 -2 13 4 19 13 8 13 13 14 16 6 9 -20 24 -15 24 7 0 19 4 22 33 24 6 1 21
9 31 19 11 9 26 17 33 17 7 0 13 5 13 10 0 6 12 10 26 10 16 0 39 13 61 35 19
19 39 32 44 29 5 -3 26 8 47 23 20 16 54 37 76 47 21 10 41 26 43 37 3 12 13
18 27 16 15 -1 22 4 24 21 3 17 8 21 23 17 13 -5 19 -2 19 10 0 25 20 56 31
49 6 -4 6 -11 -2 -20 -9 -11 -8 -14 3 -14 8 0 21 11 28 25 7 14 19 25 27 25 7
0 13 7 13 16 0 9 8 14 18 13 34 -3 43 1 54 26 6 14 17 25 23 25 7 0 20 11 29
25 9 14 22 25 30 25 7 0 19 11 26 25 16 29 30 33 30 8 0 -12 18 2 51 40 28 31
55 54 60 51 17 -10 80 39 86 67 4 19 13 29 33 33 34 6 80 47 80 70 0 10 8 16
24 16 13 0 29 7 36 15 7 8 17 12 22 8 6 -3 9 0 6 8 -2 7 10 26 28 42 18 15 36
37 39 48 4 11 15 19 29 19 27 0 46 18 46 42 0 10 7 18 15 18 8 0 15 5 15 10 0
6 6 10 13 10 19 1 57 36 57 54 0 9 8 16 20 16 13 0 24 10 30 25 5 14 16 25 23
25 8 0 25 16 38 35 13 19 29 35 35 35 11 0 34 24 118 124 22 25 45 46 52 46 7
0 10 8 7 20 -4 15 0 20 15 20 11 0 31 14 44 30 13 17 43 52 68 79 55 60 90
107 90 121 0 5 7 10 15 10 8 0 15 6 15 14 0 8 14 26 30 39 17 14 30 31 30 38
0 6 11 22 24 34 13 12 27 32 31 43 3 12 10 22 15 22 17 0 40 32 40 55 0 26 21
46 28 26 3 -9 7 -9 18 0 18 15 18 40 0 33 -8 -3 -17 -1 -20 4 -3 5 7 8 24 6
23 -3 33 3 49 25 12 16 21 35 21 43 0 8 5 19 12 26 9 9 7 12 -9 12 -28 0 -37
15 -23 37 11 17 11 17 6 0 -10 -31 24 -33 50 -4 13 15 29 27 36 27 7 1 30 26
50 58 21 31 51 77 69 101 30 43 30 45 13 59 -18 13 -17 13 6 10 19 -2 25 1 24
14 -1 10 2 15 7 12 5 -2 11 7 15 21 3 14 18 35 33 48 23 19 76 109 76 128 0 4
11 22 25 41 14 18 24 36 22 40 -1 4 7 12 17 17 10 6 22 26 25 46 5 26 12 35
26 35 11 0 20 6 20 14 0 18 78 174 91 181 5 4 9 15 9 26 0 10 9 28 20 39 11
11 20 32 20 46 0 14 11 40 25 56 14 16 23 34 20 38 -3 5 4 14 15 20 20 10 50
69 50 96 0 8 -6 14 -14 14 -9 0 -12 7 -9 20 3 11 9 20 13 20 28 0 110 123 110
166 0 10 7 25 15 34 13 15 60 136 69 179 1 8 12 22 24 31 12 10 19 20 15 23
-3 4 4 22 16 42 11 20 21 48 21 63 0 15 8 44 19 65 26 51 32 79 20 93 -7 9 -4
19 10 33 12 12 21 31 21 43 0 12 6 29 13 37 20 23 47 97 47 127 0 13 7 41 16
62 8 20 16 51 16 67 1 17 4 32 7 35 15 13 42 76 47 113 4 23 10 47 14 52 12
17 32 114 27 129 -3 7 -1 18 5 24 5 5 11 30 13 53 2 24 12 64 22 89 23 53 40
155 23 145 -19 -12 -10 24 11 44 18 17 22 33 24 108 3 115 3 115 15 108 6 -3
10 4 11 17 1 13 3 40 4 61 3 26 0 35 -8 30 -6 -3 -2 7 9 23 28 41 25 86 -6 95
-22 6 -23 7 -4 8 27 1 44 21 40 46 -2 11 1 31 5 43 12 31 1 48 -17 25 -7 -10
-14 -13 -14 -6 0 6 5 15 11 18 19 12 32 58 40 135 4 41 10 95 13 120 3 25 8
95 11 155 4 61 8 135 10 165 6 83 7 332 2 355 -3 11 -1 44 4 74 6 42 5 58 -8
77 -8 13 -11 24 -5 24 6 0 9 18 7 43 -2 23 -4 42 -5 42 -7 0 -6 36 1 41 5 3 9
10 9 17 0 8 -3 8 -12 -1 -22 -22 -32 -12 -10 11 27 28 32 124 8 133 -8 3 -19
19 -25 36 -14 40 -14 43 2 29 8 -6 17 -8 20 -4 12 11 8 40 -7 52 -10 8 -13 23
-9 47 3 19 1 34 -4 34 -6 0 -6 25 -2 64 5 37 4 79 -1 98 -6 18 -10 52 -10 75
0 29 -6 49 -19 62 -11 11 -15 21 -9 23 7 3 7 15 0 41 -6 20 -8 45 -5 56 3 10
-1 29 -8 42 -7 13 -11 48 -10 77 1 36 -3 62 -14 79 -11 16 -14 34 -10 54 4 16
2 35 -3 42 -11 14 -22 77 -22 124 1 35 -27 113 -40 113 -5 0 -6 24 -3 54 4 34
2 56 -6 60 -6 4 -11 29 -11 57 0 46 -2 49 -25 49 -29 0 -28 0 -15 35 6 15 7
32 3 38 -4 7 -9 27 -10 45 -1 19 -7 39 -12 46 -6 7 -12 21 -14 32 -2 10 -7 26
-10 34 -3 8 -8 38 -11 65 -4 28 -11 52 -16 53 -6 2 -7 9 -4 14 4 6 -1 17 -11
24 -11 8 -16 21 -12 34 3 11 -3 38 -14 59 -10 22 -26 61 -35 87 -9 27 -24 54
-33 61 -10 8 -12 12 -3 13 14 0 16 36 2 45 -5 3 -10 16 -10 29 0 23 -15 61
-50 128 -11 20 -20 48 -20 61 0 13 -11 41 -25 61 -14 20 -25 44 -25 53 0 9 -6
24 -13 32 -8 9 -22 45 -32 81 -9 36 -25 76 -35 90 -18 26 -33 58 -35 75 -3 15
-14 42 -56 132 -22 45 -39 88 -39 96 0 7 -11 23 -25 35 -14 12 -25 28 -25 36
0 7 -9 25 -20 39 -11 14 -20 32 -20 41 0 20 -21 58 -38 69 -7 5 -26 38 -43 73
-16 36 -34 62 -39 59 -6 -4 -10 5 -10 20 0 14 -13 50 -30 80 -16 30 -30 60
-30 67 0 7 -8 18 -19 25 -10 6 -29 33 -42 60 -12 26 -33 65 -46 85 -13 21 -23
44 -23 53 0 8 -7 15 -16 15 -8 0 -12 -4 -9 -10 3 -5 1 -10 -4 -10 -6 0 -11 6
-12 13 -2 45 -10 73 -24 83 -8 6 -15 16 -15 23 0 6 -4 11 -8 11 -5 0 -18 17
-30 38 -11 20 -35 52 -51 70 -17 18 -31 37 -31 42 0 5 -13 23 -29 39 -16 16
-32 44 -36 61 -4 19 -15 34 -29 39 -12 5 -31 30 -44 57 -12 27 -36 65 -54 84
-31 32 -47 54 -64 90 -4 8 -19 24 -33 36 -20 17 -29 20 -39 11 -11 -8 -12 -5
-7 14 5 20 -3 35 -39 74 -26 28 -49 59 -52 71 -3 11 -25 38 -50 59 -24 21 -44
43 -44 49 0 5 -15 23 -32 40 -18 17 -49 50 -69 74 -20 23 -42 42 -48 42 -6 0
-11 7 -11 15 0 14 -94 114 -160 171 -14 12 -38 41 -55 63 -16 23 -40 44 -52
47 -13 4 -23 12 -23 20 0 8 -4 14 -10 14 -5 0 -21 18 -36 39 -17 27 -34 41
-52 43 -18 2 -31 13 -40 31 -7 15 -25 35 -40 44 -15 10 -47 38 -72 63 -101
102 -209 190 -232 190 -16 0 -27 9 -37 31 -7 16 -30 41 -50 53 -20 13 -42 31
-50 40 -7 9 -18 16 -24 16 -5 0 -25 15 -43 34 -18 18 -53 44 -78 56 -26 12
-51 31 -57 41 -5 10 -16 19 -23 19 -7 0 -27 16 -45 35 -17 19 -37 35 -44 35
-7 0 -29 15 -50 32 -39 34 -105 75 -172 107 -22 11 -50 29 -62 40 -12 12 -39
30 -60 41 -21 12 -60 34 -88 50 -27 16 -59 29 -71 29 -12 1 -26 11 -32 26 -7
14 -20 25 -31 25 -11 0 -25 9 -31 20 -6 11 -26 22 -45 26 -20 3 -41 15 -49 25
-7 10 -16 16 -19 12 -4 -3 -15 1 -24 10 -10 8 -39 25 -64 35 -26 11 -50 25
-53 31 -4 6 -16 11 -27 11 -20 0 -48 13 -88 43 -13 9 -30 17 -37 17 -8 0 -47
16 -88 35 -41 19 -78 35 -81 35 -4 0 -21 11 -38 24 -18 13 -50 29 -72 36 -22
7 -60 22 -84 32 -24 11 -52 17 -62 15 -10 -3 -20 1 -23 8 -2 7 -18 16 -35 20
-16 3 -35 13 -42 21 -6 8 -20 14 -30 14 -11 0 -27 4 -37 9 -9 5 -36 18 -58 30
-23 11 -49 21 -58 21 -9 0 -34 9 -56 20 -22 11 -50 20 -64 20 -14 0 -28 5 -31
10 -3 6 -16 10 -27 10 -21 0 -135 40 -170 60 -10 6 -29 10 -43 10 -14 0 -33 4
-43 9 -50 26 -70 31 -97 29 -16 -1 -41 5 -55 14 -14 9 -61 23 -105 32 -44 8
-81 19 -83 25 -2 6 -18 11 -35 11 -18 0 -40 7 -50 15 -11 7 -49 17 -85 20 -37
4 -82 13 -100 21 -18 8 -37 12 -43 9 -5 -4 -16 -1 -24 5 -14 11 -74 23 -190
36 -27 3 -77 14 -109 25 -33 10 -88 19 -122 19 -35 0 -66 5 -69 10 -3 6 -26
10 -50 10 -25 0 -64 4 -87 10 -62 14 -419 50 -430 44 -5 -4 -44 -1 -86 5 -62
9 -458 21 -465 14z m-6610 -4465 c-3 -8 -6 -5 -6 6 -1 11 2 17 5 13 3 -3 4
-12 1 -19z m13972 -1080 c-7 -13 -14 -18 -16 -11 -3 7 2 19 9 27 18 20 22 12
7 -16z m141 -592 c0 -8 -4 -18 -10 -21 -5 -3 -10 3 -10 14 0 12 5 21 10 21 6
0 10 -6 10 -14z m30 -166 c0 -5 -4 -10 -10 -10 -5 0 -10 5 -10 10 0 6 5 10 10
10 6 0 10 -4 10 -10z m130 -570 c0 -5 -5 -10 -11 -10 -5 0 -7 5 -4 10 3 6 8
10 11 10 2 0 4 -4 4 -10z m10 -227 c-1 -14 -27 -43 -39 -43 -15 0 -14 23 1 38
13 13 38 16 38 5z m3 -339 c-4 -11 -8 -12 -13 -4 -6 9 -9 9 -13 -1 -4 -10 -6
-9 -6 4 -1 11 6 17 19 17 14 0 18 -5 13 -16z m-15 -814 c-7 -11 -17 -20 -22
-20 -5 0 -1 9 9 20 10 11 20 20 22 20 2 0 -2 -9 -9 -20z m-14892 -315 c1 -14
-2 -22 -7 -19 -11 6 -12 44 -1 44 4 0 8 -11 8 -25z m67 -401 c9 -10 -4 -34
-19 -34 -8 0 -14 9 -14 20 0 19 19 27 33 14z m37 -209 c0 -8 -2 -15 -4 -15 -2
0 -6 7 -10 15 -3 8 -1 15 4 15 6 0 10 -7 10 -15z m14630 -119 c0 -3 -4 -8 -10
-11 -5 -3 -10 -1 -10 4 0 6 5 11 10 11 6 0 10 -2 10 -4z m-14450 -571 c0 -8
-4 -15 -9 -15 -5 0 -11 7 -15 15 -3 9 0 15 9 15 8 0 15 -7 15 -15z m14266
-161 c-2 -16 -34 -40 -42 -32 -4 4 33 48 41 48 2 0 2 -7 1 -16z m-14026 -518
c0 -3 -4 -8 -10 -11 -5 -3 -10 -1 -10 4 0 6 5 11 10 11 6 0 10 -2 10 -4z
m13813 -47 c-6 -6 -17 -8 -24 -3 -9 5 -8 9 7 14 23 9 31 3 17 -11z m-56 -112
c0 -8 -6 -14 -14 -14 -9 0 -10 4 -2 14 6 7 12 13 14 13 1 0 2 -6 2 -13z m-44
-131 c-10 -13 -20 -20 -21 -15 -5 12 17 39 30 39 5 0 1 -11 -9 -24z m-13538
-106 c-3 -5 -1 -11 5 -15 14 -9 12 -37 -2 -32 -7 2 -13 18 -14 35 -1 17 3 29
8 26 4 -3 6 -9 3 -14z m49 -85 c3 -8 1 -15 -3 -15 -5 0 -11 7 -15 15 -3 8 -1
15 3 15 5 0 11 -7 15 -15z m13400 -1 c13 -5 14 -9 5 -20 -16 -20 -29 -17 -29
6 0 22 1 23 24 14z m-174 -346 c0 -5 -9 -12 -20 -15 -11 -3 -20 -9 -20 -14 0
-5 -4 -9 -9 -9 -5 0 -3 13 5 30 14 27 44 33 44 8z m-90 -164 c0 -8 -4 -14 -9
-14 -6 0 -9 9 -8 19 1 22 17 18 17 -5z m-290 -423 c0 -13 -29 -35 -37 -28 -7
8 15 37 28 37 5 0 9 -4 9 -9z m-18 -48 c-6 -2 -10 -8 -8 -11 2 -4 -2 -13 -10
-20 -15 -13 -18 -4 -8 22 3 9 14 16 23 15 10 0 11 -2 3 -6z m-162 -253 c0 -5
-2 -10 -4 -10 -3 0 -8 5 -11 10 -3 6 -1 10 4 10 6 0 11 -4 11 -10z m-70 -31
c-7 -11 -14 -19 -16 -16 -7 7 7 37 17 37 6 0 5 -9 -1 -21z m-11772 -49 c15 -1
15 -2 -1 -11 -22 -13 -44 2 -31 22 6 10 9 10 12 1 2 -7 11 -12 20 -12z m47
-60 c3 -5 1 -10 -4 -10 -6 0 -11 5 -11 10 0 6 2 10 4 10 3 0 8 -4 11 -10z
m11348 -360 c-6 -22 -21 -35 -29 -27 -7 7 15 47 25 47 5 0 7 -9 4 -20z m-143
-169 c0 -6 -4 -13 -10 -16 -5 -3 -10 1 -10 9 0 9 5 16 10 16 6 0 10 -4 10 -9z
m-10718 -33 c-7 -7 -12 -8 -12 -2 0 14 12 26 19 19 2 -3 -1 -11 -7 -17z
m10688 -8 c0 -5 -12 -10 -27 -9 -25 0 -26 1 -8 9 27 12 35 12 35 0z m-10650
-20 c0 -5 -5 -10 -11 -10 -5 0 -7 5 -4 10 3 6 8 10 11 10 2 0 4 -4 4 -10z
m10600 -30 c0 -5 -2 -10 -4 -10 -3 0 -8 5 -11 10 -3 6 -1 10 4 10 6 0 11 -4
11 -10z m-40 -25 c0 -8 -7 -15 -16 -15 -14 0 -14 3 -4 15 7 8 14 15 16 15 2 0
4 -7 4 -15z m-139 -119 c-6 -7 -8 -22 -5 -32 6 -18 6 -18 -11 -2 -15 14 -16
20 -5 32 7 9 17 16 22 16 6 0 6 -6 -1 -14z m-10141 -96 c0 -5 -4 -10 -10 -10
-5 0 -10 5 -10 10 0 6 5 10 10 10 6 0 10 -4 10 -10z m10045 -30 c-3 -5 -11
-10 -16 -10 -6 0 -7 5 -4 10 3 6 11 10 16 10 6 0 7 -4 4 -10z m-9865 -134 c0
-11 -19 -15 -25 -6 -3 5 1 10 9 10 9 0 16 -2 16 -4z m9621 -79 c-13 -13 -26
-3 -16 12 3 6 11 8 17 5 6 -4 6 -10 -1 -17z m-90 -50 c-8 -8 -11 -7 -11 4 0
20 13 34 18 19 3 -7 -1 -17 -7 -23z m-9311 -38 c0 -5 -12 -9 -26 -9 -14 0 -23
4 -20 8 7 11 46 12 46 1z m9170 -90 c0 -4 -6 -6 -14 -3 -9 4 -16 -3 -18 -18
-4 -20 -5 -21 -12 -5 -10 21 10 48 30 40 8 -3 14 -9 14 -14z m-80 -49 c0 -5
-5 -10 -11 -10 -5 0 -7 5 -4 10 3 6 8 10 11 10 2 0 4 -4 4 -10z m-240 -154 c0
-2 -8 -10 -17 -17 -16 -13 -17 -12 -4 4 13 16 21 21 21 13z m-117 -103 c4 -3
-8 -17 -25 -29 -39 -29 -46 -25 -16 10 24 27 31 30 41 19z m-8153 -37 c0 -2
-7 -9 -15 -16 -12 -10 -15 -10 -15 4 0 9 7 16 15 16 8 0 15 -2 15 -4z m70 -36
c0 -5 -7 -10 -15 -10 -8 0 -15 5 -15 10 0 6 7 10 15 10 8 0 15 -4 15 -10z
m7854 -91 c-8 -14 -24 -10 -24 6 0 9 6 12 15 9 8 -4 12 -10 9 -15z m-7660 -44
c-6 -16 -24 -21 -24 -7 0 11 11 22 21 22 5 0 6 -7 3 -15z m7526 -9 c0 -3 -4
-8 -10 -11 -5 -3 -10 -1 -10 4 0 6 5 11 10 11 6 0 10 -2 10 -4z m-7378 -73
c24 -28 30 -43 18 -43 -6 0 -14 8 -17 18 -4 9 -14 22 -22 29 -9 7 -11 13 -5
13 6 0 18 -8 26 -17z m108 -47 c0 -3 -4 -8 -10 -11 -5 -3 -10 -1 -10 4 0 6 5
11 10 11 6 0 10 -2 10 -4z m117 -62 c-3 -3 -12 -4 -19 -1 -8 3 -5 6 6 6 11 1
17 -2 13 -5z m78 -43 c3 -5 1 -12 -4 -15 -5 -3 -11 1 -15 9 -6 16 9 21 19 6z
m195 -100 c0 -6 -9 -9 -19 -8 -11 0 -17 5 -15 9 7 11 34 10 34 -1z m60 -31 c0
-5 -2 -10 -4 -10 -3 0 -8 5 -11 10 -3 6 -1 10 4 10 6 0 11 -4 11 -10z m6075
-30 c-3 -5 -12 -10 -18 -10 -7 0 -6 4 3 10 19 12 23 12 15 0z m-105 -64 c0 -2
-7 -7 -16 -10 -8 -3 -12 -2 -9 4 6 10 25 14 25 6z m-5660 -36 c0 -5 6 -8 13
-6 6 1 9 1 4 -1 -4 -3 -5 -9 -1 -14 10 -17 -12 -9 -29 11 -14 17 -14 20 -2 20
8 0 15 -4 15 -10z m100 -66 c0 -8 -4 -14 -10 -14 -5 0 -10 2 -10 4 0 2 -3 12
-6 20 -5 12 -2 15 10 10 9 -3 16 -12 16 -20z m5255 -14 c-3 -5 -13 -10 -21
-10 -8 0 -14 5 -14 10 0 6 9 10 21 10 11 0 17 -4 14 -10z m-5111 -16 c5 -14 4
-15 -9 -4 -17 14 -19 20 -6 20 5 0 12 -7 15 -16z m75 -36 c0 -16 -2 -18 -6 -8
-3 8 -11 18 -17 22 -7 5 -4 8 7 8 11 0 17 -7 16 -22z m4716 -48 c3 -5 1 -10
-4 -10 -6 0 -11 5 -11 10 0 6 2 10 4 10 3 0 8 -4 11 -10z m-4485 -20 c0 -5 -9
-10 -21 -10 -11 0 -17 5 -14 10 3 6 13 10 21 10 8 0 14 -4 14 -10z m30 0 c0
-5 -2 -10 -4 -10 -3 0 -8 5 -11 10 -3 6 -1 10 4 10 6 0 11 -4 11 -10z m30 -10
c0 -5 -2 -10 -4 -10 -3 0 -8 5 -11 10 -3 6 -1 10 4 10 6 0 11 -4 11 -10z m135
-68 c-8 -8 -25 10 -19 20 4 6 9 5 15 -3 4 -7 6 -15 4 -17z m4035 21 c0 -5 -5
-15 -10 -23 -7 -12 -12 -12 -22 -2 -10 10 -10 15 2 22 18 12 30 13 30 3z
m-3983 -19 c-3 -3 -12 -4 -19 -1 -8 3 -5 6 6 6 11 1 17 -2 13 -5z m3834 -37
c-10 -9 -11 -8 -5 6 3 10 9 15 12 12 3 -3 0 -11 -7 -18z m-77 -5 c3 -5 -1 -9
-9 -9 -8 0 -12 4 -9 9 3 4 7 8 9 8 2 0 6 -4 9 -8z m46 4 c0 -3 -4 -8 -10 -11
-5 -3 -10 -1 -10 4 0 6 5 11 10 11 6 0 10 -2 10 -4z m-135 -36 c-3 -5 -15 -10
-26 -10 -10 0 -19 5 -19 10 0 6 12 10 26 10 14 0 23 -4 19 -10z m-3385 -9 c0
-6 -4 -13 -10 -16 -5 -3 -10 1 -10 9 0 9 5 16 10 16 6 0 10 -4 10 -9z m275
-42 c11 -17 -1 -21 -15 -4 -8 9 -8 15 -2 15 6 0 14 -5 17 -11z m2820 -17 c-3
-3 -11 0 -18 7 -9 10 -8 11 6 5 10 -3 15 -9 12 -12z m-80 -8 c9 -9 14 -18 11
-21 -7 -7 -46 16 -46 27 0 15 17 12 35 -6z m-2499 -40 c-4 -9 -9 -15 -11 -12
-3 3 -3 13 1 22 4 9 9 15 11 12 3 -3 3 -13 -1 -22z m2374 10 c0 -8 -5 -12 -10
-9 -6 4 -8 11 -5 16 9 14 15 11 15 -7z m-265 -25 c12 -19 -5 -23 -22 -6 -16
16 -16 17 -1 17 9 0 20 -5 23 -11z m-1775 -15 c0 -8 -4 -12 -10 -9 -5 3 -10
10 -10 16 0 5 5 9 10 9 6 0 10 -7 10 -16z m115 -4 c4 -6 -5 -7 -23 -4 -17 3
-32 1 -36 -5 -7 -11 -36 -4 -36 10 0 12 87 11 95 -1z m259 -31 c-8 -14 -24
-10 -24 6 0 9 6 12 15 9 8 -4 12 -10 9 -15z m836 6 c0 -8 -9 -15 -20 -15 -25
0 -26 17 -2 23 9 3 18 5 20 6 1 0 2 -6 2 -14z m60 6 c0 -12 -20 -25 -27 -18
-7 7 6 27 18 27 5 0 9 -4 9 -9z m-790 -5 c0 -2 -7 -7 -16 -10 -8 -3 -12 -2 -9
4 6 10 25 14 25 6z m333 -2 c9 -10 -4 -34 -19 -34 -16 0 -16 2 -8 24 6 17 16
20 27 10z m537 -4 c0 -5 -5 -10 -11 -10 -5 0 -7 5 -4 10 3 6 8 10 11 10 2 0 4
-4 4 -10z m-450 -4 c0 -2 -8 -10 -17 -17 -16 -13 -17 -12 -4 4 13 16 21 21 21
13z"/>
<path d="M9390 34436 c0 -9 5 -16 10 -16 6 0 10 4 10 9 0 6 -4 13 -10 16 -5 3
-10 -1 -10 -9z"/>
<path d="M8975 33940 c3 -5 8 -10 11 -10 2 0 4 5 4 10 0 6 -5 10 -11 10 -5 0
-7 -4 -4 -10z"/>
<path d="M8560 33349 c0 -5 5 -7 10 -4 6 3 10 8 10 11 0 2 -4 4 -10 4 -5 0
-10 -5 -10 -11z"/>
<path d="M8138 32673 c-8 -10 -14 -25 -13 -33 1 -8 3 -21 3 -28 1 -7 7 -10 13
-7 6 4 8 14 5 22 -3 8 -1 11 4 8 6 -4 10 6 8 24 -1 17 -3 31 -4 31 0 0 -8 -8
-16 -17z"/>
<path d="M7421 30594 c0 -11 3 -14 6 -6 3 7 2 16 -1 19 -3 4 -6 -2 -5 -13z"/>
<path d="M7350 30100 c0 -11 4 -20 8 -20 4 0 8 9 8 20 0 11 -4 20 -8 20 -4 0
-8 -9 -8 -20z"/>
<path d="M7290 29220 c0 -5 5 -10 10 -10 6 0 10 5 10 10 0 6 -4 10 -10 10 -5
0 -10 -4 -10 -10z"/>
<path d="M7308 28775 c-8 -9 3 -45 13 -45 5 0 9 6 9 13 0 17 -15 39 -22 32z"/>
<path d="M7380 28055 c0 -8 5 -15 10 -15 6 0 10 7 10 15 0 8 -4 15 -10 15 -5
0 -10 -7 -10 -15z"/>
<path d="M7430 27680 c0 -5 5 -10 11 -10 5 0 7 5 4 10 -3 6 -8 10 -11 10 -2 0
-4 -4 -4 -10z"/>
<path d="M8140 25641 c0 -11 4 -21 9 -21 18 0 21 18 6 30 -13 10 -15 9 -15 -9z"/>
<path d="M8790 24596 c0 -9 5 -16 10 -16 6 0 10 4 10 9 0 6 -4 13 -10 16 -5 3
-10 -1 -10 -9z"/>
<path d="M9335 23910 c3 -5 13 -10 21 -10 8 0 14 5 14 10 0 6 -9 10 -21 10
-11 0 -17 -4 -14 -10z"/>
<path d="M17875 22150 c-3 -5 1 -10 9 -10 9 0 16 5 16 10 0 6 -4 10 -9 10 -6
0 -13 -4 -16 -10z"/>
<path d="M12460 21895 c0 -9 9 -15 25 -15 18 0 23 4 19 15 -4 8 -15 15 -25 15
-10 0 -19 -7 -19 -15z"/>
<path d="M12720 21821 c0 -6 4 -13 10 -16 6 -3 7 1 4 9 -7 18 -14 21 -14 7z"/>
<path d="M15525 9980 c-3 -5 -23 -8 -43 -5 -46 6 -72 -2 -72 -21 0 -8 -5 -14
-11 -14 -6 0 -8 7 -5 15 8 21 -20 31 -40 15 -10 -9 -18 -10 -25 -3 -6 6 -25 7
-52 1 -23 -5 -76 -11 -117 -14 -41 -3 -79 -9 -84 -15 -6 -5 -19 -9 -30 -9 -20
-1 -20 -1 -3 -14 20 -16 22 -26 4 -26 -7 0 -18 9 -25 20 -14 23 -54 26 -72 5
-9 -11 -27 -14 -71 -10 -32 2 -59 0 -59 -5 0 -4 -13 -11 -30 -15 -16 -4 -32
-11 -35 -15 -3 -5 -19 -7 -35 -3 -18 3 -30 1 -30 -5 0 -6 -29 -14 -65 -17 -45
-5 -65 -12 -65 -21 0 -8 -6 -14 -14 -14 -8 0 -17 -6 -20 -12 -5 -10 -7 -10
-12 0 -13 27 -89 2 -118 -40 -11 -16 -18 -19 -28 -10 -9 7 -19 8 -28 2 -8 -6
-25 -10 -37 -10 -12 0 -28 -9 -36 -20 -9 -12 -20 -18 -30 -14 -20 7 -64 -22
-80 -54 -6 -14 -18 -27 -24 -30 -19 -6 -16 25 3 32 9 4 14 9 11 12 -8 8 -95
-32 -251 -115 -27 -14 -64 -34 -83 -44 -22 -11 -31 -22 -26 -30 4 -8 1 -7 -10
2 -15 12 -17 11 -17 -3 0 -10 -8 -16 -21 -16 -22 0 -49 -22 -49 -39 0 -6 -11
-11 -25 -11 -16 0 -25 -6 -25 -15 0 -9 -9 -15 -21 -15 -12 0 -33 -13 -49 -29
-20 -23 -30 -27 -39 -18 -8 8 -11 6 -11 -8 0 -36 -60 -78 -117 -84 -7 0 -36
-23 -64 -51 -28 -27 -54 -50 -58 -50 -13 0 -71 -59 -71 -72 0 -9 -3 -9 -10 2
-9 13 -12 12 -22 -5 -6 -11 -28 -36 -48 -55 -19 -19 -46 -48 -59 -65 -12 -16
-26 -30 -30 -30 -4 0 -26 -15 -49 -33 -32 -26 -42 -41 -42 -62 0 -16 -5 -32
-11 -35 -17 -11 -23 3 -8 21 12 15 12 17 -1 12 -8 -2 -20 -14 -26 -26 -6 -12
-22 -32 -35 -45 -63 -60 -129 -139 -124 -148 4 -5 0 -9 -7 -9 -18 0 -43 -40
-43 -70 0 -18 -5 -25 -17 -24 -10 1 -15 -3 -11 -9 4 -6 0 -8 -10 -4 -11 4 -22
-4 -37 -28 -11 -18 -26 -35 -33 -38 -6 -2 -21 -28 -32 -56 -11 -28 -25 -51
-32 -51 -6 0 -27 -25 -45 -55 -18 -30 -36 -55 -40 -55 -5 0 -8 -7 -8 -16 0 -9
-13 -36 -30 -61 -16 -24 -30 -47 -30 -52 0 -4 -9 -16 -19 -28 -11 -11 -19 -29
-18 -39 1 -11 -4 -18 -10 -17 -7 2 -13 -3 -13 -10 0 -24 -50 -118 -66 -124
-10 -4 -14 -13 -10 -29 4 -15 -2 -32 -18 -51 -26 -31 -22 -63 10 -81 11 -6 13
-11 5 -16 -11 -7 -48 8 -43 18 1 3 -1 6 -5 6 -5 0 -9 -10 -11 -24 -2 -13 -10
-30 -18 -36 -8 -7 -14 -19 -14 -26 0 -8 -5 -14 -11 -14 -7 0 -9 -10 -5 -24 3
-14 2 -28 -4 -31 -5 -3 -10 -19 -10 -35 0 -15 -7 -30 -15 -34 -8 -3 -12 -12
-9 -20 3 -8 -4 -24 -16 -36 -12 -12 -20 -30 -17 -40 2 -9 0 -26 -6 -36 -6 -10
-12 -23 -12 -29 -1 -14 -25 -96 -37 -125 -18 -44 -36 -131 -31 -151 3 -10 0
-26 -7 -34 -7 -8 -10 -21 -7 -29 4 -9 1 -13 -6 -10 -8 3 -12 -9 -11 -38 1 -27
-5 -50 -15 -62 -9 -11 -10 -16 -3 -12 7 4 12 1 12 -8 0 -9 -4 -16 -8 -16 -5 0
-9 -6 -10 -12 -7 -75 -13 -114 -30 -174 -14 -53 -18 -92 -14 -148 2 -42 1 -76
-4 -76 -5 0 -9 -27 -9 -60 0 -33 4 -60 8 -60 5 0 6 -4 3 -9 -12 -18 -17 -371
-6 -371 7 0 9 -24 6 -62 -4 -58 3 -147 18 -223 3 -16 8 -52 11 -79 2 -27 9
-53 16 -57 6 -4 10 -18 7 -33 -3 -14 -1 -26 3 -26 5 0 9 -10 9 -22 1 -13 2
-41 4 -63 2 -22 0 -46 -4 -54 -5 -9 0 -21 13 -31 15 -12 21 -30 23 -66 1 -27
3 -57 3 -66 1 -10 7 -18 15 -18 15 0 29 -50 27 -92 -2 -15 3 -37 10 -50 7 -13
12 -26 11 -30 -4 -15 30 -88 39 -82 5 3 6 -8 3 -23 -4 -21 1 -36 20 -58 17
-20 26 -42 26 -65 0 -19 9 -46 20 -60 11 -14 20 -32 20 -41 0 -20 40 -102 54
-111 6 -4 15 2 20 15 9 21 10 21 14 -7 2 -16 -1 -32 -8 -36 -13 -8 18 -70 35
-70 6 0 3 -4 -5 -10 -18 -11 -10 -21 19 -23 11 -1 21 -8 21 -16 0 -22 23 -84
38 -99 7 -8 10 -18 7 -23 -4 -5 5 -14 18 -20 18 -8 23 -17 19 -31 -3 -13 1
-24 11 -30 9 -4 14 -15 11 -23 -6 -14 5 -19 33 -16 7 1 15 -14 19 -34 3 -19 9
-33 13 -31 4 3 13 -10 20 -27 22 -51 72 -127 84 -127 18 0 56 -50 51 -65 -7
-18 13 -55 29 -55 20 0 138 -120 149 -151 6 -17 18 -29 31 -31 14 -2 23 -11
25 -25 2 -13 8 -23 13 -23 5 0 9 -7 9 -15 0 -9 7 -18 15 -21 8 -4 15 -12 15
-20 0 -8 7 -14 15 -14 8 0 35 -21 60 -46 25 -25 52 -47 60 -48 7 -1 26 -14 41
-29 15 -15 31 -27 35 -27 5 0 9 -5 9 -11 0 -22 42 -69 61 -69 11 0 24 -11 31
-26 9 -20 17 -24 36 -19 20 5 23 3 18 -10 -4 -12 4 -20 30 -31 19 -8 37 -21
40 -29 4 -8 9 -13 13 -11 9 6 50 -17 49 -29 0 -5 19 -20 43 -33 24 -13 55 -34
69 -47 24 -23 155 -95 173 -95 5 0 20 -14 34 -31 19 -23 32 -29 48 -25 15 4
25 1 29 -9 3 -8 15 -15 26 -15 11 0 20 -4 20 -10 0 -5 6 -10 13 -10 7 0 20 -9
30 -20 9 -11 29 -20 44 -20 17 0 33 -8 41 -20 7 -11 21 -20 31 -20 11 0 23 -5
26 -10 4 -6 14 -10 24 -8 9 1 31 -8 49 -20 17 -13 32 -21 32 -17 0 3 10 -1 22
-9 12 -9 33 -16 45 -16 15 0 21 -5 17 -13 -4 -10 3 -13 25 -9 21 3 39 -3 65
-23 20 -15 42 -25 50 -22 16 6 81 -14 98 -31 7 -7 26 -12 43 -12 17 0 36 -5
41 -10 6 -6 32 -12 59 -15 26 -3 65 -10 87 -15 21 -6 43 -8 49 -5 5 4 30 -3
54 -14 26 -12 65 -21 93 -21 26 0 54 -6 60 -12 12 -12 64 -19 262 -34 41 -3
83 -10 92 -15 9 -5 27 -5 39 0 13 4 41 4 63 -1 39 -9 418 -2 504 9 23 3 42 9
42 14 0 5 12 4 26 -1 15 -6 42 -8 60 -4 19 3 60 7 91 8 32 1 67 7 78 12 11 6
43 12 70 13 28 1 54 6 60 12 5 5 28 9 52 9 24 0 43 4 43 9 0 15 40 26 95 27
46 1 93 13 138 36 10 5 22 6 28 2 5 -3 20 1 32 9 12 8 40 17 62 21 21 4 51 13
65 21 14 7 42 15 63 19 21 4 40 13 43 21 5 12 67 35 135 49 15 3 41 19 59 36
18 16 38 30 45 30 12 0 116 31 124 36 2 2 -4 15 -14 30 -12 19 -14 29 -6 37 8
8 11 5 11 -11 0 -12 9 -26 20 -32 17 -9 20 -7 26 15 4 18 13 25 30 25 13 0 24
5 24 11 0 5 5 7 11 4 6 -4 21 3 33 14 15 14 29 19 40 15 10 -4 21 -3 25 2 12
18 89 74 100 74 7 0 24 12 39 27 15 15 45 37 67 48 26 13 41 28 43 43 3 17 8
21 22 17 21 -7 61 16 100 56 14 14 40 32 58 40 18 8 32 19 32 25 0 6 19 24 43
40 50 34 137 120 137 137 0 7 4 6 10 -3 8 -13 11 -11 16 7 3 12 15 23 26 25
13 2 35 27 58 66 21 34 40 58 42 52 5 -15 38 -1 38 15 0 7 14 27 30 45 17 18
30 36 30 41 0 5 5 9 11 9 5 0 7 5 4 10 -3 6 0 10 8 10 8 0 17 10 21 23 3 13
17 29 31 35 14 6 25 15 25 19 0 5 14 23 30 42 17 18 30 42 30 52 0 12 5 16 15
13 9 -4 15 0 15 8 0 17 34 60 47 58 4 0 9 8 11 18 2 11 14 25 28 32 13 7 24
21 24 31 0 10 6 22 14 26 8 4 16 22 18 38 2 20 8 29 18 28 9 -2 23 14 35 40
11 23 28 48 37 55 13 9 16 21 12 38 -5 21 -3 25 12 22 13 -2 19 4 21 17 1 11
6 38 12 60 6 26 7 42 0 46 -16 10 8 61 28 58 34 -3 41 1 53 31 7 17 16 30 21
30 5 0 9 6 9 14 0 7 7 27 15 42 8 16 15 39 15 50 0 12 6 24 14 27 8 3 17 24
21 46 4 23 10 41 14 41 7 0 33 57 51 115 7 22 20 46 29 53 12 9 16 30 16 77 1
35 5 68 10 72 4 4 5 3 1 -4 -3 -6 -2 -14 3 -17 11 -7 22 18 27 69 3 22 9 62
14 88 6 26 10 61 10 76 0 17 7 31 16 35 11 4 14 13 10 30 -4 15 0 28 9 36 7 6
11 18 8 26 -3 8 -1 20 5 27 12 14 42 209 38 247 -2 14 1 28 6 31 9 6 21 54 19
79 -5 84 0 194 10 206 8 9 9 35 4 81 -4 38 -6 88 -4 113 1 25 1 54 0 65 -1 11
-3 92 -4 180 -2 88 -6 166 -10 172 -4 7 -8 40 -8 74 -1 35 -5 70 -9 78 -4 9
-13 29 -19 45 -10 23 -14 26 -26 16 -18 -15 -20 -13 -29 21 -4 19 -1 29 8 32
8 3 17 1 19 -6 2 -7 8 -9 12 -5 4 4 2 14 -4 22 -7 8 -10 19 -7 24 3 6 1 36 -6
68 -6 33 -11 76 -11 97 1 38 -10 49 -21 21 -3 -8 -10 -12 -16 -9 -13 8 -13 65
1 65 5 0 7 5 3 12 -5 7 -9 31 -10 53 -1 22 -11 71 -21 108 -16 55 -22 66 -31
54 -10 -11 -9 -21 3 -43 16 -32 15 -37 -9 -28 -16 6 -17 17 -12 80 4 54 2 73
-7 71 -6 -1 -13 8 -15 21 -2 13 -9 25 -16 28 -9 3 -11 22 -9 62 l4 57 -17 -32
c-9 -18 -20 -33 -23 -33 -4 0 -8 30 -9 67 -2 42 -8 73 -17 83 -8 9 -15 24 -15
33 0 9 -5 19 -10 22 -6 4 -8 11 -5 16 4 5 1 9 -5 9 -6 0 -10 6 -9 13 5 25 -12
76 -24 71 -13 -5 -43 53 -39 74 2 7 -11 35 -27 61 -17 26 -31 55 -31 63 0 8
-9 23 -20 33 -11 10 -20 23 -20 29 0 7 -9 18 -20 26 -11 8 -20 22 -20 31 0 9
-11 29 -25 45 -14 16 -25 36 -25 45 0 9 -7 22 -15 29 -8 7 -15 18 -15 25 0 7
-7 18 -16 26 -13 10 -17 10 -26 -2 -8 -12 -9 -12 -5 1 7 25 -8 53 -32 57 -15
2 -20 -1 -15 -9 4 -6 3 -8 -3 -5 -6 4 -13 29 -17 57 -5 41 -10 50 -26 50 -14
0 -20 7 -20 23 0 39 -57 107 -89 107 -24 0 -36 16 -19 23 8 3 -2 20 -29 45
-23 23 -44 50 -48 62 -3 11 -10 20 -15 20 -15 0 -61 53 -72 82 -5 15 -18 30
-29 33 -10 4 -39 26 -63 51 -43 43 -66 55 -66 33 0 -5 -4 -8 -9 -4 -5 3 -12
-3 -14 -12 -4 -14 -5 -13 -6 4 0 12 3 33 9 48 7 17 7 24 0 20 -6 -3 -10 1 -10
9 0 20 -36 39 -60 31 -10 -3 -21 -1 -25 5 -3 5 -1 10 4 10 18 0 12 20 -6 27
-10 3 -26 15 -35 27 l-18 21 -6 -22 c-4 -13 -11 -23 -16 -23 -5 0 -6 5 -3 10
8 14 -4 50 -17 50 -5 0 -19 11 -29 24 -14 17 -25 23 -41 18 -20 -5 -21 -3 -10
10 20 25 -5 34 -30 12 -20 -19 -20 -18 -16 16 2 26 -1 35 -14 38 -10 2 -19 -5
-23 -18 -8 -27 -31 -20 -27 8 2 12 -6 26 -17 34 -12 8 -19 17 -16 20 3 3 -1
11 -10 18 -13 11 -15 9 -16 -11 -1 -17 -3 -19 -6 -6 -2 9 -8 17 -13 17 -5 0
-14 -8 -19 -17 -12 -20 -14 -14 -15 37 -1 27 -5 34 -18 32 -9 -1 -22 7 -28 18
-6 11 -16 17 -22 14 -7 -4 -8 -3 -4 5 4 6 0 14 -11 17 -10 3 -30 12 -45 20
-36 19 -38 19 -38 -22 0 -21 -4 -33 -10 -29 -5 3 -10 20 -10 36 0 46 -17 71
-39 59 -10 -5 -21 -6 -25 -3 -3 3 -6 -2 -6 -13 -1 -18 -1 -18 -14 -1 -8 10
-23 17 -33 16 -10 -1 -31 4 -48 11 l-30 14 28 4 c15 2 27 7 27 11 0 15 -47 51
-67 51 -12 0 -24 7 -27 16 -4 11 -14 14 -35 9 -16 -3 -40 -3 -54 0 -19 5 -23
11 -19 27 4 18 2 20 -16 16 -15 -4 -23 0 -27 13 -4 13 -16 19 -36 19 -26 0
-29 -3 -29 -32 l-1 -33 -15 28 c-8 15 -12 32 -9 38 4 5 -7 15 -24 22 -17 6
-31 15 -31 19 0 15 -19 8 -23 -9 -4 -16 -5 -16 -6 -1 -1 10 -13 19 -30 23 -16
3 -32 13 -35 21 -4 9 -13 13 -24 10 -9 -3 -34 3 -54 14 -36 19 -82 21 -107 5
-8 -4 -14 1 -18 14 -4 15 -11 20 -23 16 -12 -4 -19 1 -23 15 -7 26 -35 26 -64
-2 -23 -21 -23 -21 -23 -1 0 12 -8 23 -18 25 -15 4 -18 1 -14 -18 2 -14 0 -24
-7 -24 -7 0 -11 6 -10 13 4 30 -2 47 -16 47 -8 0 -15 -8 -15 -17 0 -15 -2 -14
-15 4 -19 27 -69 45 -84 30 -8 -8 -11 -7 -11 2 0 9 -10 12 -30 9 -19 -3 -31 0
-35 10 -3 8 -12 11 -21 8 -9 -3 -55 1 -102 10 -47 9 -95 14 -108 11 -13 -2
-47 0 -76 5 -78 13 -328 11 -344 -3 -9 -7 -14 -8 -14 -1 0 14 -28 23 -35 12z
m-225 -50 c0 -5 -2 -10 -4 -10 -3 0 -8 5 -11 10 -3 6 -1 10 4 10 6 0 11 -4 11
-10z m510 -16 c0 -8 -5 -12 -10 -9 -6 4 -8 11 -5 16 9 14 15 11 15 -7z m-460
-6 c0 -4 -9 -8 -20 -8 -11 0 -20 4 -20 9 0 6 9 9 20 8 11 -1 20 -5 20 -9z
m387 6 c-3 -3 -12 -4 -19 -1 -8 3 -5 6 6 6 11 1 17 -2 13 -5z m466 -36 c-9
-15 -23 -8 -23 12 0 17 2 19 14 8 8 -7 12 -16 9 -20z m144 -11 c-3 -7 -19 -14
-37 -15 -19 -1 -29 1 -25 8 3 5 17 10 31 10 14 0 22 4 19 10 -3 6 -3 16 2 23
5 9 9 7 11 -6 2 -10 2 -24 -1 -30z m-1394 -2 c4 -8 2 -17 -3 -20 -6 -4 -10 3
-10 14 0 25 6 27 13 6z m87 5 c0 -5 -2 -10 -4 -10 -3 0 -8 5 -11 10 -3 6 -1
10 4 10 6 0 11 -4 11 -10z m-325 -30 c3 -5 1 -10 -4 -10 -6 0 -11 5 -11 10 0
6 2 10 4 10 3 0 8 -4 11 -10z m1810 -20 c-3 -5 -10 -10 -16 -10 -5 0 -9 5 -9
10 0 6 7 10 16 10 8 0 12 -4 9 -10z m-1895 -20 c0 -5 -7 -7 -15 -4 -8 4 -12
10 -9 15 6 11 24 2 24 -11z m2176 -65 c14 -13 13 -15 -10 -15 -25 0 -41 12
-29 24 10 10 23 7 39 -9z m-2396 -15 c0 -5 -8 -10 -17 -10 -15 0 -16 2 -3 10
19 12 20 12 20 0z m-90 -20 c0 -5 -4 -10 -9 -10 -6 0 -13 5 -16 10 -3 6 1 10
9 10 9 0 16 -4 16 -10z m2765 -70 c3 -5 -3 -10 -15 -10 -12 0 -18 5 -15 10 3
6 10 10 15 10 5 0 12 -4 15 -10z m110 -20 c3 -5 0 -10 -9 -10 -8 0 -16 -6 -19
-12 -2 -7 -8 -10 -12 -6 -7 7 14 37 27 38 4 0 10 -4 13 -10z m-3316 -128 c0
-11 -2 -12 -6 -4 -2 6 -9 10 -14 6 -10 -6 -12 9 -3 19 10 10 24 -2 23 -21z
m3461 8 c0 -5 -4 -10 -10 -10 -5 0 -10 5 -10 10 0 6 5 10 10 10 6 0 10 -4 10
-10z m84 -41 c-6 -11 -24 -2 -24 11 0 5 7 7 15 4 8 -4 12 -10 9 -15z m76 -19
c0 -5 -5 -10 -11 -10 -5 0 -7 5 -4 10 3 6 8 10 11 10 2 0 4 -4 4 -10z m310
-230 c0 -5 -4 -10 -9 -10 -6 0 -13 5 -16 10 -3 6 1 10 9 10 9 0 16 -4 16 -10z
m50 -34 c0 -3 -4 -8 -10 -11 -5 -3 -10 -1 -10 4 0 6 5 11 10 11 6 0 10 -2 10
-4z m-4534 -64 c-8 -9 -19 -13 -22 -9 -10 9 16 38 28 31 6 -4 4 -13 -6 -22z
m5040 -346 c30 -31 8 -36 -27 -6 -21 17 -22 19 -6 20 10 0 25 -6 33 -14z m80
-163 c-4 -4 -11 -1 -16 7 -16 25 -11 35 7 17 9 -9 13 -20 9 -24z m79 -74 c11
-17 -1 -21 -15 -4 -8 9 -8 15 -2 15 6 0 14 -5 17 -11z m-5804 -36 c-8 -15 -10
-15 -11 -2 0 17 10 32 18 25 2 -3 -1 -13 -7 -23z m-413 -625 c-5 -15 -23 -11
-26 6 -2 11 2 14 13 10 9 -4 14 -11 13 -16z m6689 -80 c-3 -8 -6 -5 -6 6 -1
11 2 17 5 13 3 -3 4 -12 1 -19z m47 -140 c11 -35 15 -78 7 -78 -5 0 -15 20
-23 45 -13 38 -13 45 -1 45 7 0 15 -6 17 -12z m43 -170 c-3 -8 -6 -5 -6 6 -1
11 2 17 5 13 3 -3 4 -12 1 -19z m123 -229 c0 -11 -4 -17 -10 -14 -5 3 -10 15
-10 26 0 11 5 17 10 14 6 -3 10 -15 10 -26z m100 -549 c0 -11 -2 -20 -4 -20
-2 0 -6 9 -9 20 -3 11 -1 20 4 20 5 0 9 -9 9 -20z m20 -260 c0 -11 -4 -20 -10
-20 -5 0 -10 9 -10 20 0 11 5 20 10 20 6 0 10 -9 10 -20z m-3 -592 c-3 -8 -6
-5 -6 6 -1 11 2 17 5 13 3 -3 4 -12 1 -19z m3 -84 c0 -2 -7 -4 -15 -4 -8 0
-15 4 -15 10 0 5 7 7 15 4 8 -4 15 -8 15 -10z m-33 -146 c-3 -8 -6 -5 -6 6 -1
11 2 17 5 13 3 -3 4 -12 1 -19z m-7317 -308 c0 -5 -5 -10 -11 -10 -5 0 -7 5
-4 10 3 6 8 10 11 10 2 0 4 -4 4 -10z m7110 -520 c0 -13 -11 -13 -30 0 -12 8
-11 10 8 10 12 0 22 -4 22 -10z m-736 -1145 c-4 -8 -7 -15 -9 -15 -2 0 -5 7
-9 15 -3 9 0 15 9 15 9 0 12 -6 9 -15z m-139 -135 c3 -5 1 -10 -4 -10 -6 0
-11 5 -11 10 0 6 2 10 4 10 3 0 8 -4 11 -10z"/>
<path d="M17120 9650 c0 -5 7 -10 15 -10 8 0 15 5 15 10 0 6 -7 10 -15 10 -8
0 -15 -4 -15 -10z"/>
<path d="M17325 9560 c-3 -5 1 -10 9 -10 9 0 16 5 16 10 0 6 -4 10 -9 10 -6 0
-13 -4 -16 -10z"/>
<path d="M19370 6316 c0 -9 5 -16 10 -16 6 0 10 4 10 9 0 6 -4 13 -10 16 -5 3
-10 -1 -10 -9z"/>
</g>
</svg>
